<svg width="258" height="143" viewBox="0 0 258 143" fill="none" xmlns="http://www.w3.org/2000/svg">
<path d="M0.421646 39.2795H13.6351V53.9501C17.5801 48.1713 21.7431 43.8489 26.1242 40.9828C30.1529 38.228 34.9109 36.7316 39.7933 36.6837C43.3644 36.6837 47.1809 37.825 51.2427 40.1078L44.5016 50.9985C41.7756 49.8318 39.4974 49.2485 37.667 49.2485C33.3521 49.2485 29.193 51.0179 25.1896 54.5568C21.1862 58.0956 18.137 63.5847 16.0418 71.0241C14.4373 76.7485 13.6351 88.3139 13.6351 105.72V139.682H0.421646V39.2795Z" fill="#407096"/>
<path d="M132.702 106.368L143.608 112.09C140.033 119.09 135.902 124.75 131.213 129.071C126.615 133.321 121.249 136.657 115.4 138.9C109.535 141.144 102.905 142.266 95.5096 142.266C79.1066 142.266 66.2807 136.899 57.0316 126.166C47.7826 115.433 43.1561 103.3 43.1522 89.7664C43.0211 77.4004 47.1707 65.3687 54.8995 55.7059C64.83 43.0244 78.1194 36.6837 94.7677 36.6837C111.903 36.6837 125.593 43.1741 135.839 56.1551C143.114 65.3211 146.813 76.764 146.938 90.4839H56.465C56.7103 102.15 60.4411 111.711 67.6573 119.166C74.8735 126.621 83.7876 130.348 94.3997 130.348C99.4995 130.353 104.559 129.45 109.342 127.683C113.856 126.096 118.041 123.698 121.691 120.607C125.087 117.671 128.757 112.924 132.702 106.368ZM132.702 79.3307C130.981 72.4396 128.467 66.933 125.161 62.8109C121.635 58.5149 117.152 55.1011 112.07 52.8418C106.714 50.3376 100.869 49.0468 94.9546 49.0618C85.0825 49.0618 76.6006 52.2293 69.5091 58.5642C64.3296 63.1764 60.4119 70.0986 57.756 79.3307H132.702Z" fill="#407096"/>
<path d="M257.226 0.517365V139.682H244.474V122.433C239.045 129.013 232.96 133.965 226.219 137.29C219.328 140.641 211.75 142.345 204.085 142.266C189.856 142.266 177.703 137.113 167.629 126.808C157.554 116.502 152.517 103.961 152.517 89.183C152.517 74.7282 157.601 62.3636 167.769 52.0893C177.937 41.815 190.165 36.6797 204.454 36.6836C212.713 36.6836 220.185 38.4336 226.867 41.9336C233.55 45.4335 239.419 50.6951 244.474 57.7184V0.517365H257.226ZM205.517 49.1493C198.483 49.1009 191.567 50.9514 185.501 54.5053C179.434 58.0591 174.442 63.1841 171.052 69.3383C167.507 75.5125 165.646 82.507 165.654 89.6239C165.663 96.7407 167.54 103.731 171.099 109.897C174.519 116.142 179.565 121.35 185.702 124.97C191.674 128.527 198.505 130.391 205.458 130.36C212.517 130.365 219.453 128.523 225.576 125.017C231.712 121.653 236.782 116.639 240.209 110.544C243.629 104.458 245.336 97.6063 245.332 89.988C245.332 78.376 241.502 68.6655 233.842 60.8567C226.182 53.0479 216.74 49.1454 205.517 49.1493Z" fill="#407096"/>
<path d="M160.023 12.0439H162.488V14.7738C163.103 13.825 163.896 13.0047 164.825 12.3588C165.576 11.8474 166.462 11.5693 167.372 11.5597C168.12 11.5866 168.849 11.8013 169.492 12.1839L168.236 14.2138C167.837 14.0232 167.404 13.9123 166.963 13.8872C166.088 13.9129 165.254 14.2646 164.626 14.873C163.776 15.7126 163.185 16.7771 162.92 17.9413C162.624 19.0068 162.476 21.1613 162.476 24.4045V30.7453H160.011L160.023 12.0439Z" fill="#407096" stroke="#407096" stroke-width="0.404995" stroke-miterlimit="10"/>
<path d="M184.663 24.5388L186.695 25.6005C186.114 26.7881 185.322 27.8611 184.359 28.7679C183.509 29.5568 182.518 30.1782 181.438 30.5996C180.252 31.0311 178.997 31.2427 177.734 31.2237C174.677 31.2237 172.288 30.2243 170.567 28.2254C168.974 26.4296 168.061 24.1329 167.989 21.7348C167.916 19.3367 168.688 16.9892 170.17 15.1006C171.034 13.9615 172.16 13.0456 173.451 12.4296C174.743 11.8136 176.164 11.5153 177.594 11.5598C179.067 11.5115 180.53 11.8156 181.861 12.4468C183.193 13.0779 184.353 14.0178 185.247 15.1881C186.649 17.0286 187.379 19.2928 187.315 21.6047H170.462C170.434 23.5889 171.182 25.5057 172.547 26.9479C173.186 27.624 173.959 28.1586 174.817 28.5173C175.676 28.8761 176.6 29.0509 177.53 29.0304C178.49 29.03 179.442 28.8561 180.34 28.5171C181.181 28.2205 181.96 27.7738 182.641 27.1988C183.443 26.4167 184.124 25.5203 184.663 24.5388V24.5388ZM184.663 19.4989C184.42 18.3862 183.942 17.3381 183.261 16.4247C182.603 15.6244 181.767 14.9891 180.819 14.5697C179.821 14.1011 178.732 13.86 177.629 13.8639C175.885 13.8235 174.19 14.4494 172.892 15.6139C171.813 16.6697 171.053 18.0082 170.701 19.4755L184.663 19.4989Z" fill="#407096" stroke="#407096" stroke-width="0.404995" stroke-miterlimit="10"/>
<path d="M207.795 12.0439V30.7454H205.458V27.5312C204.536 28.6849 203.377 29.6277 202.058 30.2962C200.264 31.1522 198.246 31.4247 196.289 31.0752C194.331 30.7257 192.533 29.7718 191.147 28.3479C190.23 27.43 189.509 26.337 189.025 25.1343C188.541 23.9316 188.305 22.6438 188.331 21.348C188.31 20.0638 188.552 18.7889 189.04 17.6007C189.528 16.4124 190.252 15.3356 191.17 14.4356C192.05 13.5128 193.111 12.7815 194.287 12.2876C195.463 11.7937 196.729 11.5479 198.004 11.5656C199.454 11.545 200.887 11.8816 202.175 12.5456C203.482 13.2487 204.607 14.2476 205.458 15.4622V12.0439H207.795ZM198.168 13.8814C196.857 13.8706 195.567 14.2147 194.435 14.8771C193.304 15.5396 192.373 16.4957 191.742 17.6439C191.076 18.7967 190.725 20.1043 190.725 21.4355C190.725 22.7666 191.076 24.0743 191.742 25.2271C192.382 26.3891 193.322 27.3582 194.464 28.0329C195.575 28.6941 196.846 29.0409 198.139 29.0362C199.453 29.0365 200.744 28.6925 201.883 28.0387C203.026 27.4113 203.971 26.478 204.611 25.3438C205.269 24.1761 205.609 22.8569 205.598 21.5171C205.626 20.5158 205.451 19.5191 205.083 18.587C204.716 17.6548 204.164 16.8063 203.46 16.0922C202.783 15.3794 201.965 14.8148 201.058 14.4343C200.151 14.0537 199.175 13.8654 198.191 13.8814H198.168Z" fill="#407096" stroke="#407096" stroke-width="0.404995" stroke-miterlimit="10"/>
<path d="M210.237 4.82227H212.649V30.7453H210.237V4.82227Z" fill="#407096" stroke="#407096" stroke-width="0.404995" stroke-miterlimit="10"/>
<path d="M215.844 4.34402C216.107 4.3399 216.367 4.38954 216.609 4.48988C216.851 4.59021 217.07 4.73911 217.252 4.92734C217.437 5.11064 217.584 5.32872 217.685 5.569C217.785 5.80929 217.836 6.06702 217.836 6.32733C217.836 6.58764 217.785 6.84537 217.685 7.08565C217.584 7.32594 217.437 7.54402 217.252 7.72731C217.07 7.91555 216.851 8.06445 216.609 8.16478C216.367 8.26512 216.107 8.31476 215.844 8.31064C215.586 8.31434 215.329 8.26441 215.091 8.16401C214.853 8.0636 214.638 7.9149 214.46 7.72731C214.275 7.54402 214.128 7.32594 214.028 7.08565C213.927 6.84537 213.876 6.58764 213.876 6.32733C213.876 6.06702 213.927 5.80929 214.028 5.569C214.128 5.32872 214.275 5.11064 214.46 4.92734C214.638 4.73976 214.853 4.59106 215.091 4.49065C215.329 4.39024 215.586 4.34031 215.844 4.34402ZM214.676 12.0439H217.083V30.7454H214.676V12.0439Z" fill="#407096" stroke="#407096" stroke-width="0.404995" stroke-miterlimit="10"/>
<path d="M221.522 5.09647H223.935V12.0439H227.755V14.1205H223.935V30.7453H221.522V14.1205H218.239V12.0439H221.522V5.09647Z" fill="#407096" stroke="#407096" stroke-width="0.404995" stroke-miterlimit="10"/>
<path d="M226.71 12.0439H229.262L235.688 26.4404L241.938 12.0439H244.503L233.34 37.5819H230.793L234.397 29.3278L226.71 12.0439Z" fill="#407096" stroke="#407096" stroke-width="0.404995" stroke-miterlimit="10"/>
</svg>